# xmcd CD database file
#
# Track frame offsets:
#	187
#	16452
#	39600
#	55787
#
# Disc length: 1050 seconds
#
# Revision: 0
# Processed by: cddbd v1.5.1PL0 Copyright (c) Steve Scherf et al.
# Submitted via: CDex 1.40Beta9
#
DISCID=2b041804
DTITLE=巻上公一 - 平成じゃらん節
DYEAR=1990
DGENRE=Unknown
TTITLE0=平成じゃらん節
TTITLE1=カリョービンガ
TTITLE2=平成じゃらん節（オリジナル・カラオケ）
TTITLE3=カリョービンガ（オリジナル・カラオケ）
EXTD=YEAR: 1990
EXTT0=
EXTT1=
EXTT2=
EXTT3=
PLAYORDER=
